<svg width="32" height="32" viewBox="0 0 32 32" fill="none" xmlns="http://www.w3.org/2000/svg">
<path d="M31.524 6.58264C30.4107 7.07598 29.2147 7.40931 27.9573 7.55998C29.24 6.79198 30.224 5.57331 30.688 4.12264C29.488 4.83464 28.1587 5.35198 26.744 5.62931C25.6107 4.42398 23.9973 3.66931 22.2107 3.66931C18.7813 3.66931 16 6.45065 16 9.88265C16 10.368 16.056 10.84 16.16 11.296C10.996 11.036 6.42133 8.56265 3.35733 4.80531C2.824 5.72531 2.51733 6.79198 2.51733 7.92798C2.51733 10.0826 3.61466 11.9853 5.28 13.0986C4.26133 13.0653 3.304 12.7866 2.46666 12.3213V12.4013C2.46666 15.4106 4.60666 17.9213 7.44933 18.492C6.92666 18.6333 6.37866 18.708 5.81333 18.708C5.41333 18.708 5.02266 18.6706 4.644 18.5986C5.43466 21.0653 7.728 22.8626 10.4467 22.9106C8.32 24.5773 5.64133 25.5706 2.732 25.5706C2.23066 25.5706 1.736 25.5413 1.24933 25.484C3.99866 27.248 7.26266 28.2746 10.7693 28.2746C22.196 28.2746 28.4427 18.8106 28.4427 10.6026C28.4427 10.336 28.436 10.0666 28.424 9.79998C29.6373 8.92265 30.6907 7.83065 31.5213 6.58665L31.524 6.58264Z" fill="#1DA1F2"/>
</svg>
