<svg width="19" height="18" viewBox="0 0 19 18" fill="none" xmlns="http://www.w3.org/2000/svg">
<path d="M11.0345 1.6815L7.92352 1.674H7.92202C4.64152 1.674 2.07202 4.24425 2.07202 7.5255C2.07202 10.599 4.46152 12.93 7.67077 13.053V15.924C7.67077 16.005 7.70377 16.1385 7.76077 16.2262C7.86727 16.395 8.04877 16.4865 8.23477 16.4865C8.33827 16.4865 8.44252 16.458 8.53627 16.398C8.73427 16.272 13.391 13.293 14.6023 12.2685C16.0288 11.061 16.8823 9.291 16.8845 7.5345V7.52175C16.88 4.2465 14.312 1.6815 11.0345 1.68075V1.6815ZM13.8748 11.4105C13.0243 12.1305 10.2283 13.9642 8.79577 14.8927V12.5025C8.79577 12.192 8.54452 11.94 8.23327 11.94H7.93627C5.19127 11.94 3.19777 10.083 3.19777 7.5255C3.19777 4.875 5.27377 2.799 7.92277 2.799L11.033 2.8065H11.0345C13.6835 2.8065 15.7595 4.881 15.761 7.5285C15.7588 8.961 15.0545 10.4115 13.8755 11.4105H13.8748Z" fill="#828282"/>
</svg>
